<svg viewBox="0 0 109.911511111 46.5795" width="109.911511111pt" height="46.5795pt" xmlns="http://www.w3.org/2000/svg" xmlns:xlink="http://www.w3.org/1999/xlink" xmlns:h5="http://www.w3.org/1999/xhtml"><g transform="matrix(1 0 0 -1 0 8.228)"><use xlink:href="#g632970FA01183B4AA6CBF9A77827C064" x="0" y="0" fill="#2ecc40" fill-rule="nonzero"/></g><g transform="matrix(1 0 0 -1 7.788 8.228)"><use xlink:href="#gCBFDB4FAA60E8030E7B751E03D6CAAA6" x="0" y="0" fill="#2ecc40" fill-rule="nonzero"/></g><g transform="matrix(1 0 0 -1 12.067 8.228)"><use xlink:href="#gCBFDB4FAA60E8030E7B751E03D6CAAA6" x="0" y="0" fill="#2ecc40" fill-rule="nonzero"/></g><g transform="matrix(1 0 0 -1 16.346 8.228)"><use xlink:href="#g2F762EB36E28EBD52DF554547371368" x="0" y="0" fill="#2ecc40" fill-rule="nonzero"/></g><g transform="matrix(1 0 0 -1 22.165 10.945)"><use xlink:href="#g875437C11DB9B5CB3877C00CB5DFC7CA" x="0" y="0" fill="#2ecc40" fill-rule="nonzero"/></g><g transform="matrix(1 0 0 -1 28.2172 8.228)"><use xlink:href="#g11C1096A524ED08942C2BB5E0564A17C" x="0" y="0" fill="#2ecc40" fill-rule="nonzero"/></g><g transform="matrix(1 0 0 -1 32.4962 8.228)"><use xlink:href="#g11C1096A524ED08942C2BB5E0564A17C" x="0" y="0" fill="#2ecc40" fill-rule="nonzero"/></g><g transform="matrix(1 0 0 -1 39.830755556 8.228)"><use xlink:href="#g4409E2CB062F4B2A6E5513C033F25B3C" x="0" y="0" fill="#2ecc40" fill-rule="nonzero"/></g><g transform="matrix(1 0 0 -1 51.444311111 8.228)"><use xlink:href="#gCBFDB4FAA60E8030E7B751E03D6CAAA6" x="0" y="0" fill="#2ecc40" fill-rule="nonzero"/></g><g transform="matrix(1 0 0 -1 55.723311111 8.228)"><use xlink:href="#g1BC53DB87870246BC0DB40E75DD190A0" x="0" y="0" fill="#2ecc40" fill-rule="nonzero"/></g><g transform="matrix(1 0 0 -1 60.442311111 10.945)"><use xlink:href="#g875437C11DB9B5CB3877C00CB5DFC7CA" x="0" y="0" fill="#2ecc40" fill-rule="nonzero"/></g><g transform="matrix(1 0 0 -1 66.494511111 8.228)"><use xlink:href="#g11C1096A524ED08942C2BB5E0564A17C" x="0" y="0" fill="#2ecc40" fill-rule="nonzero"/></g><g transform="matrix(1 0 0 -1 81.773511111 8.228)"><use xlink:href="#g5EB396CD9EB516C004A1674D88B874CA" x="0" y="0" fill="#2ecc40" fill-rule="nonzero"/><use xlink:href="#g8DA9F50C43D3D01F5A06C14F79588415" x="7.942" y="0" fill="#2ecc40" fill-rule="nonzero"/><use xlink:href="#g4F15B44AD1AAE7906B9D9F9C3850F14B" x="14.058" y="0" fill="#2ecc40" fill-rule="nonzero"/><use xlink:href="#gA1583A9D47A5AF176809D99838F34700" x="18.942" y="0" fill="#2ecc40" fill-rule="nonzero"/><use xlink:href="#g4F15B44AD1AAE7906B9D9F9C3850F14B" x="23.254" y="0" fill="#2ecc40" fill-rule="nonzero"/></g><g transform="matrix(1 0 0 -1 26.004 34.2947)"><use xlink:href="#g1BC53DB87870246BC0DB40E75DD190A0" x="0" y="0" fill="#2ecc40" fill-rule="nonzero"/></g><g transform="matrix(1 0 0 -1 30.723 37.0117)"><use xlink:href="#g875437C11DB9B5CB3877C00CB5DFC7CA" x="0" y="0" fill="#2ecc40" fill-rule="nonzero"/></g><g transform="matrix(1 0 0 -1 39.830755556 34.2947)"><use xlink:href="#gA41B524F70729D0B309398374886607D" x="0" y="0" fill="#2ecc40" fill-rule="nonzero"/></g><g transform="matrix(1 0 0 -1 52.852311111 34.2947)"><use xlink:href="#g706EE69C46BAB90A505DD5B589C7F90F" x="0" y="0" fill="#2ecc40" fill-rule="nonzero"/></g><g transform="matrix(1 0 0 -1 58.076211111 21.5677)"><use xlink:href="#g875437C11DB9B5CB3877C00CB5DFC7CA" x="0" y="0" fill="#2ecc40" fill-rule="nonzero"/></g><g transform="matrix(1 0 0 -1 53.271411111 46.4255)"><use xlink:href="#gE5E4B3D26703D509709EA9DC0AEFBF03" x="0" y="0" fill="#2ecc40" fill-rule="nonzero"/></g><g transform="matrix(1 0 0 -1 57.945311111 46.4255)"><use xlink:href="#g423FD3E18125DBC1564AE0B039B883AC" x="0" y="0" fill="#2ecc40" fill-rule="nonzero"/></g><g transform="matrix(1 0 0 -1 63.935911111 46.4255)"><use xlink:href="#g6BBDA2C83ED50876E6E330EDA5C956B5" x="0" y="0" fill="#2ecc40" fill-rule="nonzero"/></g><g transform="matrix(1 0 0 -1 68.736311111 34.2947)"><use xlink:href="#gB06124E05EB0688FC21D210879C0E77E" x="0" y="0" fill="#2ecc40" fill-rule="nonzero"/></g><g transform="matrix(1 0 0 -1 76.403311111 26.8477)"><use xlink:href="#g46A72DF51926ABBEA5282E072AF79004" x="0" y="0" fill="#2ecc40" fill-rule="nonzero"/></g><g transform="matrix(1 0 0 -1 76.755311111 41.8407)"><use xlink:href="#g909F38261CC6AC8EC8B4F87EB7C59E71" x="0" y="0" fill="#2ecc40" fill-rule="nonzero"/></g><g transform="matrix(1 0 0 -1 84.103311111 34.2947)"><use xlink:href="#gD84F32024E522F58238D3DCD4C61FFC1" x="0" y="0" fill="#2ecc40" fill-rule="nonzero"/></g><g transform="matrix(1 0 0 -1 90.670311111 34.2947)"><use xlink:href="#g2F762EB36E28EBD52DF554547371368" x="0" y="0" fill="#2ecc40" fill-rule="nonzero"/></g><g transform="matrix(1 0 0 -1 96.489311111 37.0117)"><use xlink:href="#gE5E4B3D26703D509709EA9DC0AEFBF03" x="0" y="0" fill="#2ecc40" fill-rule="nonzero"/></g><defs><symbol id="g632970FA01183B4AA6CBF9A77827C064" overflow="visible"><path d="M 0 0m 5.258 3.938c 0.77 0.198 1.606 0.814 1.606 1.694c 0 0.583 -0.275 1.045 -0.825 1.408c -0.473 0.319 -1.023 0.473 -1.628 0.473h -4.015v -0.429h 0.308c 0.385 0 0.616 -0.033 0.693 -0.088c 0.077 -0.055 0.121 -0.176 0.121 -0.374v -5.731c 0 -0.198 -0.044 -0.33 -0.121 -0.385c -0.077 -0.055 -0.308 -0.077 -0.693 -0.077h -0.308v -0.429h 4.301c 0.627 0 1.188 0.176 1.672 0.528c 0.528 0.385 0.792 0.891 0.792 1.507c 0 1.023 -0.968 1.727 -1.903 1.903Z m 0.473 1.694c 0 -0.924 -0.77 -1.562 -1.694 -1.562h -1.529v 2.629c 0 0.396 0.055 0.385 0.484 0.385h 1.342c 0.814 0 1.397 -0.638 1.397 -1.452Z m 0.253 -3.586v -0.286c -0.022 -0.253 -0.165 -0.539 -0.44 -0.836c -0.286 -0.33 -0.682 -0.495 -1.199 -0.495h -1.353c -0.429 0 -0.484 -0.011 -0.484 0.385v 2.926h 1.991c 0.891 0 1.485 -0.77 1.485 -1.694Z "/></symbol><symbol id="gCBFDB4FAA60E8030E7B751E03D6CAAA6" overflow="visible"><path d="M 0 0m 3.498 -2.728c 0.099 0 0.154 0.055 0.154 0.154c 0 0.033 -0.022 0.077 -0.055 0.121c -0.572 0.44 -1.034 1.166 -1.375 2.167c -0.297 0.869 -0.451 1.727 -0.451 2.574v 0.924c 0 0.847 0.154 1.705 0.451 2.574c 0.341 1.001 0.803 1.727 1.375 2.167c 0.033 0.033 0.055 0.077 0.055 0.121c 0 0.099 -0.055 0.154 -0.154 0.154c -0.011 0 -0.044 -0.011 -0.077 -0.033c -0.66 -0.506 -1.21 -1.254 -1.661 -2.255c -0.429 -0.957 -0.649 -1.859 -0.649 -2.728v -0.924c 0 -0.869 0.22 -1.771 0.649 -2.728c 0.451 -1.001 1.001 -1.749 1.661 -2.255c 0.033 -0.022 0.066 -0.033 0.077 -0.033Z "/></symbol><symbol id="g2F762EB36E28EBD52DF554547371368" overflow="visible"><path d="M 0 0m 5.478 1.584c 0 0.099 -0.055 0.154 -0.176 0.154c -0.088 0 -0.154 -0.077 -0.187 -0.231c -0.22 -0.869 -0.484 -1.309 -0.781 -1.309c -0.187 0 -0.286 0.154 -0.286 0.462c 0 0.143 0.044 0.407 0.143 0.792l 0.627 2.475c 0.055 0.209 0.077 0.33 0.077 0.385c 0 0.22 -0.121 0.33 -0.363 0.33c -0.231 0 -0.385 -0.132 -0.462 -0.385c -0.231 0.407 -0.561 0.605 -0.979 0.605c -0.715 0 -1.342 -0.363 -1.892 -1.089c -0.506 -0.682 -0.759 -1.386 -0.759 -2.123c 0 -0.957 0.561 -1.771 1.485 -1.771c 0.473 0 0.935 0.253 1.375 0.759c 0.121 -0.418 0.495 -0.759 1.012 -0.759c 0.759 0 0.99 0.891 1.166 1.705Z m -1.727 2.53c 0.099 -0.231 0.154 -0.385 0.154 -0.484c 0 -0.044 -0.011 -0.099 -0.022 -0.176l -0.539 -2.112c -0.033 -0.121 -0.11 -0.253 -0.209 -0.385c -0.407 -0.506 -0.803 -0.759 -1.188 -0.759c -0.429 0 -0.649 0.33 -0.649 0.979c 0 0.264 0.066 0.66 0.198 1.188c 0.231 0.935 0.561 1.562 0.968 1.903c 0.22 0.187 0.429 0.275 0.638 0.275c 0.297 0 0.517 -0.143 0.649 -0.429Z "/></symbol><symbol id="g875437C11DB9B5CB3877C00CB5DFC7CA" overflow="visible"><path d="M 0 0m 1.2628 3.3957c -0.2541 0 -0.462 -0.1386 -0.6237 -0.4235c -0.1078 -0.1925 -0.1925 -0.3927 -0.2464 -0.616c -0.0231 -0.0847 -0.0308 -0.1309 -0.0308 -0.1463c 0 -0.0847 0.0539 -0.1309 0.1617 -0.1309c 0.1463 0 0.154 0.0847 0.1925 0.2464c 0.1309 0.5313 0.308 0.8008 0.5313 0.8008c 0.1463 0 0.2156 -0.1155 0.2156 -0.3465c 0 -0.0847 -0.0385 -0.2849 -0.1232 -0.616l -0.4081 -1.6478c -0.0539 -0.2079 -0.077 -0.3157 -0.077 -0.3234c 0 -0.1771 0.1001 -0.2695 0.2926 -0.2695c 0.1463 0 0.2541 0.0616 0.3234 0.1848c 0.0231 0.0462 0.0693 0.2079 0.1386 0.4774l 0.1617 0.6776c 0.0924 0.3619 0.1463 0.5621 0.1617 0.6083c 0.0616 0.2002 0.154 0.3927 0.2849 0.5698c 0.3234 0.4543 0.693 0.6853 1.1165 0.6853c 0.2772 0 0.4158 -0.1694 0.4158 -0.5005c 0 -0.3003 -0.1463 -0.8316 -0.4466 -1.6016c -0.077 -0.2002 -0.1155 -0.3388 -0.1155 -0.4235c 0 -0.4158 0.3388 -0.6776 0.7546 -0.6776c 0.3619 0 0.6545 0.1848 0.8624 0.5544c 0.1771 0.3157 0.2618 0.5236 0.2618 0.6314c 0 0.0847 -0.0539 0.1309 -0.154 0.1309c -0.0539 -0.0077 -0.1078 -0.0462 -0.1617 -0.1232c -0.0077 -0.0077 -0.0077 -0.0231 -0.0077 -0.0308c -0.1771 -0.5929 -0.4389 -0.8932 -0.7777 -0.8932c -0.1078 0 -0.1617 0.077 -0.1617 0.2387c 0 0.1078 0.0616 0.308 0.1771 0.6006c 0.2695 0.6853 0.4004 1.1781 0.4004 1.4707c 0 0.3542 -0.1232 0.6006 -0.3619 0.7315c -0.1925 0.1078 -0.4158 0.1617 -0.6545 0.1617c -0.5005 0 -0.924 -0.2156 -1.2628 -0.6468c -0.0693 0.3773 -0.4004 0.6468 -0.8393 0.6468Z "/></symbol><symbol id="g11C1096A524ED08942C2BB5E0564A17C" overflow="visible"><path d="M 0 0m 0.858 -2.695c 0.66 0.506 1.21 1.254 1.661 2.255c 0.429 0.957 0.649 1.859 0.649 2.728v 0.924c 0 0.869 -0.22 1.771 -0.649 2.728c -0.451 1.001 -1.001 1.749 -1.661 2.255c -0.033 0.022 -0.066 0.033 -0.077 0.033c -0.099 0 -0.154 -0.055 -0.154 -0.154c 0 -0.044 0.022 -0.088 0.055 -0.121c 0.572 -0.44 1.034 -1.166 1.375 -2.167c 0.297 -0.869 0.451 -1.727 0.451 -2.574v -0.924c 0 -0.847 -0.154 -1.705 -0.451 -2.574c -0.341 -1.001 -0.803 -1.727 -1.375 -2.167c -0.033 -0.044 -0.055 -0.088 -0.055 -0.121c 0 -0.099 0.055 -0.154 0.154 -0.154c 0.011 0 0.044 0.011 0.077 0.033Z "/></symbol><symbol id="g4409E2CB062F4B2A6E5513C033F25B3C" overflow="visible"><path d="M 0 0m 7.678 4.037h -6.798c -0.176 0 -0.264 -0.088 -0.264 -0.253c 0 -0.165 0.088 -0.253 0.264 -0.253h 6.798c 0.176 0 0.264 0.088 0.264 0.253c 0 0.132 -0.121 0.253 -0.264 0.253Z m 0 -2.068h -6.798c -0.176 0 -0.264 -0.088 -0.264 -0.253c 0 -0.165 0.088 -0.253 0.264 -0.253h 6.798c 0.176 0 0.264 0.088 0.264 0.253c 0 0.143 -0.121 0.253 -0.264 0.253Z "/></symbol><symbol id="g1BC53DB87870246BC0DB40E75DD190A0" overflow="visible"><path d="M 0 0m 3.091 4.895c -0.396 0 -0.792 -0.187 -1.177 -0.561l 0.759 3.135c -0.022 0.099 -0.055 0.165 -0.187 0.165c -0.363 0 -1.166 -0.099 -1.309 -0.11c -0.165 -0.022 -0.253 -0.099 -0.253 -0.264c 0 -0.11 0.099 -0.165 0.308 -0.165c 0.209 0 0.495 0.011 0.495 -0.143c 0 -0.044 -0.055 -0.264 -0.154 -0.671l -0.88 -3.542c -0.121 -0.462 -0.176 -0.836 -0.176 -1.111c 0 -0.946 0.506 -1.749 1.408 -1.749c 0.715 0 1.342 0.363 1.892 1.1c 0.495 0.682 0.748 1.397 0.748 2.134c 0 0.957 -0.561 1.782 -1.474 1.782Z m -0.022 -0.33c 0.429 0 0.638 -0.33 0.638 -0.979c 0 -0.297 -0.066 -0.693 -0.198 -1.188c -0.242 -0.935 -0.561 -1.573 -0.946 -1.914c -0.22 -0.187 -0.429 -0.275 -0.638 -0.275c -0.451 0 -0.671 0.352 -0.671 1.056c 0 0.242 0.055 0.605 0.165 1.089l 0.242 0.99c 0.033 0.165 0.088 0.286 0.154 0.374c 0.429 0.561 0.847 0.847 1.254 0.847Z "/></symbol><symbol id="g5EB396CD9EB516C004A1674D88B874CA" overflow="visible"><path d="M 0 0m 6.82 3.652c 0.154 0.429 0.462 0.66 0.913 0.671v 0.418c -0.341 -0.033 -0.627 -0.044 -0.836 -0.033l -1.056 0.033v -0.418c 0.418 -0.011 0.627 -0.176 0.627 -0.484c 0 -0.044 -0.011 -0.11 -0.044 -0.209l -0.957 -2.651l -1.034 2.904c -0.033 0.099 -0.044 0.154 -0.044 0.187c 0 0.165 0.209 0.253 0.638 0.253v 0.418l -1.177 -0.033c -0.22 -0.011 -0.561 0 -1.012 0.033v -0.418c 0.385 0 0.616 -0.055 0.693 -0.154c 0.033 -0.033 0.121 -0.22 0.242 -0.561l -0.891 -2.486l -0.99 2.772c -0.033 0.099 -0.055 0.154 -0.055 0.176c 0 0.165 0.22 0.253 0.649 0.253v 0.418l -1.232 -0.033l -1.056 0.033v -0.418c 0.539 0 0.682 0.011 0.803 -0.352l 1.375 -3.828c 0.066 -0.176 0.154 -0.264 0.264 -0.264c 0.121 0 0.209 0.077 0.264 0.242l 1.056 2.948l 1.067 -2.959c 0.055 -0.154 0.143 -0.231 0.264 -0.231c 0.077 0.011 0.165 0.088 0.253 0.231Z "/></symbol><symbol id="g8DA9F50C43D3D01F5A06C14F79588415" overflow="visible"><path d="M 0 0m 3.454 4.565c 0.495 0 0.748 -0.385 0.748 -1.166v -2.53c 0 -0.209 -0.033 -0.341 -0.11 -0.385c -0.077 -0.044 -0.319 -0.055 -0.726 -0.055v -0.429l 1.265 0.033l 1.254 -0.033v 0.429c -0.352 0 -0.583 0.011 -0.693 0.044c -0.11 0.033 -0.154 0.11 -0.154 0.231v 2.079c 0 0.528 -0.011 0.891 -0.044 1.1c -0.11 0.671 -0.605 1.012 -1.474 1.012c -0.671 0 -1.177 -0.308 -1.518 -0.924v 3.663l -1.65 -0.121v -0.418c 0.396 0 0.638 -0.033 0.726 -0.099c 0.088 -0.066 0.121 -0.22 0.121 -0.473v -5.654c 0 -0.209 -0.044 -0.341 -0.121 -0.385c -0.077 -0.044 -0.319 -0.055 -0.726 -0.055v -0.429l 1.265 0.033l 1.254 -0.033v 0.429c -0.407 0 -0.638 0.011 -0.715 0.055c -0.077 0.044 -0.121 0.176 -0.121 0.385v 2.002c 0 0.891 0.561 1.694 1.419 1.694Z "/></symbol><symbol id="g4F15B44AD1AAE7906B9D9F9C3850F14B" overflow="visible"><path d="M 0 0m 4.565 2.761c 0 1.265 -0.737 2.167 -1.969 2.167c -0.66 0 -1.21 -0.253 -1.661 -0.77c -0.418 -0.484 -0.627 -1.067 -0.627 -1.738c 0 -0.693 0.231 -1.276 0.693 -1.782c 0.462 -0.506 1.034 -0.759 1.716 -0.759c 0.627 0 1.111 0.22 1.441 0.649c 0.275 0.363 0.407 0.627 0.407 0.803c 0 0.11 -0.066 0.165 -0.187 0.165c -0.088 0 -0.143 -0.055 -0.176 -0.176c -0.242 -0.726 -0.715 -1.089 -1.419 -1.089c -0.495 0 -0.88 0.231 -1.177 0.704c -0.209 0.341 -0.308 0.858 -0.319 1.562h 2.97c 0.242 0 0.308 0.022 0.308 0.264Z m -0.979 1.078c 0.121 -0.363 0.176 -0.715 0.176 -1.034h -2.464c 0.033 0.726 0.22 1.221 0.55 1.474c 0.275 0.22 0.517 0.33 0.748 0.33c 0.495 0 0.825 -0.253 0.99 -0.77Z "/></symbol><symbol id="gA1583A9D47A5AF176809D99838F34700" overflow="visible"><path d="M 0 0m 4.004 4.158c 0 0.429 -0.407 0.704 -0.836 0.704c -0.561 0 -0.99 -0.33 -1.276 -1.001v 1.001l -1.584 -0.121v -0.418c 0.385 0 0.616 -0.033 0.704 -0.099c 0.088 -0.066 0.132 -0.209 0.132 -0.462v -2.893c 0 -0.209 -0.033 -0.341 -0.11 -0.385c -0.077 -0.044 -0.319 -0.066 -0.726 -0.066v -0.418l 1.265 0.033c 0.462 0.011 0.935 0 1.408 -0.033v 0.418h -0.264c -0.363 0 -0.594 0.033 -0.671 0.088c -0.077 0.055 -0.11 0.187 -0.11 0.385v 1.661c 0 0.473 0.088 0.902 0.253 1.265c 0.22 0.473 0.539 0.715 0.968 0.726c -0.11 -0.11 -0.165 -0.242 -0.165 -0.396c 0 -0.341 0.165 -0.506 0.506 -0.506c 0.297 0 0.506 0.231 0.506 0.517Z "/></symbol><symbol id="gA41B524F70729D0B309398374886607D" overflow="visible"><path d="M 0 0m 9.086 4.048h -5.665c -0.165 0 -0.253 -0.088 -0.253 -0.253c 0 -0.176 0.088 -0.264 0.253 -0.264h 5.665c 0.176 0 0.264 0.088 0.264 0.264c 0 0.132 -0.121 0.253 -0.264 0.253Z m 0 -2.079h -5.665c -0.165 0 -0.253 -0.088 -0.253 -0.264c 0 -0.165 0.088 -0.253 0.253 -0.253h 5.665c 0.176 0 0.264 0.088 0.264 0.253c 0 0.143 -0.121 0.264 -0.264 0.264Z m -7.227 2.057c 0 0.341 -0.286 0.616 -0.627 0.616c -0.341 0 -0.616 -0.275 -0.616 -0.616c 0 -0.33 0.286 -0.605 0.616 -0.605c 0.341 0 0.627 0.264 0.627 0.605Z m 0 -2.552c 0 0.341 -0.286 0.605 -0.627 0.605c -0.33 0 -0.616 -0.275 -0.616 -0.605c 0 -0.341 0.275 -0.616 0.616 -0.616c 0.352 0 0.627 0.264 0.627 0.616Z "/></symbol><symbol id="g706EE69C46BAB90A505DD5B589C7F90F" overflow="visible"><path d="M 0 0m 13.915 -4.95l 1.364 3.586h -0.374c -0.209 -0.55 -0.561 -1.012 -1.067 -1.386c -1.243 -0.924 -2.838 -1.166 -5.137 -1.166h -6.501l 5.5 6.468c 0.077 0.077 0.11 0.154 0.11 0.209l -5.126 7.073h 5.907c 2.079 0 3.806 -0.264 4.939 -0.99c 0.66 -0.418 1.122 -0.935 1.386 -1.551h 0.363l -1.364 3.157h -12.947c -0.198 0 -0.308 -0.033 -0.341 -0.099c -0.011 -0.033 -0.011 -0.165 -0.011 -0.396l 5.775 -7.898l -5.643 -6.622c -0.077 -0.088 -0.121 -0.165 -0.121 -0.22c 0 -0.11 0.11 -0.165 0.341 -0.165Z "/></symbol><symbol id="gE5E4B3D26703D509709EA9DC0AEFBF03" overflow="visible"><path d="M 0 0m 4.3659 2.8567c 0 0.3388 -0.2772 0.5621 -0.616 0.5621c -0.3465 0 -0.7546 -0.2233 -1.232 -0.6776c -0.3465 -0.3311 -0.6237 -0.5467 -0.8162 -0.6391l 0.7392 2.9722c 0.0077 0.0154 0.0154 0.0616 0.0308 0.1309c 0 0.0924 -0.0539 0.1386 -0.154 0.1386l -0.9702 -0.077c -0.1309 -0.0077 -0.1925 -0.077 -0.1925 -0.2079c 0 -0.0847 0.077 -0.1309 0.2233 -0.1309c 0.1309 0 0.3388 0 0.3388 -0.0847c 0 -0.0308 -0.0077 -0.0847 -0.0308 -0.1617c -0.3696 -1.4707 -0.7238 -2.9568 -1.1011 -4.4198c -0.0077 -0.0308 -0.0077 -0.0539 -0.0077 -0.0616c 0 -0.1848 0.0924 -0.2772 0.2849 -0.2772c 0.1925 0 0.3157 0.1155 0.3773 0.3388c 0.1232 0.4697 0.3003 1.1704 0.3696 1.4553c 0.6083 -0.0693 0.9163 -0.2618 0.9163 -0.5929c 0 -0.0693 -0.0462 -0.3157 -0.0462 -0.385c 0 -0.4774 0.3619 -0.8162 0.8316 -0.8162c 0.2772 0 0.5082 0.1386 0.6853 0.4158c 0.1617 0.2541 0.2618 0.5082 0.308 0.7777c 0 0.0847 -0.0539 0.1309 -0.154 0.1309c -0.0462 0 -0.077 -0.0077 -0.1001 -0.0231c -0.0385 -0.0693 -0.0693 -0.1309 -0.077 -0.1848c -0.154 -0.5621 -0.3696 -0.8393 -0.6391 -0.8393c -0.154 0 -0.231 0.1232 -0.231 0.3619c 0 0.0924 0.0154 0.2002 0.0385 0.3311c 0.0231 0.0847 0.0385 0.1617 0.0385 0.2464c 0 0.3311 -0.1694 0.5621 -0.5159 0.6776c -0.2156 0.077 -0.4312 0.1309 -0.6468 0.154c 0.1463 0.1001 0.3311 0.2541 0.5544 0.4543c 0.3619 0.3234 0.7007 0.7161 1.1704 0.7161c 0.0847 0 0.1463 -0.0154 0.1925 -0.0462c -0.2387 -0.0616 -0.3619 -0.2079 -0.3619 -0.4466c 0 -0.1848 0.1463 -0.3157 0.3311 -0.3157c 0.2772 0 0.462 0.2464 0.462 0.5236Z "/></symbol><symbol id="g423FD3E18125DBC1564AE0B039B883AC" overflow="visible"><path d="M 0 0m 5.3746 2.8259h -4.7586c -0.1232 0 -0.1848 -0.0616 -0.1848 -0.1771c 0 -0.1155 0.0616 -0.1771 0.1848 -0.1771h 4.7586c 0.1232 0 0.1848 0.0616 0.1848 0.1771c 0 0.0924 -0.0847 0.1771 -0.1848 0.1771Z m 0 -1.4476h -4.7586c -0.1232 0 -0.1848 -0.0616 -0.1848 -0.1771c 0 -0.1155 0.0616 -0.1771 0.1848 -0.1771h 4.7586c 0.1232 0 0.1848 0.0616 0.1848 0.1771c 0 0.1001 -0.0847 0.1771 -0.1848 0.1771Z "/></symbol><symbol id="g6BBDA2C83ED50876E6E330EDA5C956B5" overflow="visible"><path d="M 0 0m 3.9732 2.4563c 0 0.8701 -0.154 1.5323 -0.4543 1.9866c -0.2464 0.385 -0.7392 0.6699 -1.3321 0.6699c -0.2464 0 -0.4697 -0.0385 -0.6622 -0.1232c -0.847 -0.3542 -1.1242 -1.3398 -1.1242 -2.5333c 0 -0.2618 0.0154 -0.5082 0.0385 -0.7469c 0.1309 -1.0087 0.6006 -1.8634 1.7479 -1.8634c 0.2464 0 0.4697 0.0385 0.6622 0.1232c 0.847 0.3465 1.1242 1.309 1.1242 2.4871Z m -0.8778 1.7094c 0.0847 -0.2849 0.1309 -0.8162 0.1309 -1.6093c 0 -0.7546 -0.0308 -1.2859 -0.1001 -1.6016c -0.0924 -0.4543 -0.4158 -0.8316 -0.9394 -0.8316c -0.1925 0 -0.385 0.0616 -0.5621 0.1925c -0.2387 0.1771 -0.385 0.5236 -0.4466 1.0549c -0.0231 0.1771 -0.0308 0.5698 -0.0308 1.1858c 0 0.7469 0.0385 1.2628 0.1155 1.54c 0.1309 0.4928 0.4389 0.7392 0.924 0.7392c 0.462 0 0.8008 -0.3003 0.9086 -0.6699Z "/></symbol><symbol id="gB06124E05EB0688FC21D210879C0E77E" overflow="visible"><path d="M 0 0m 5.731 -7.106c 0.132 0 0.198 0.066 0.198 0.198c 0 0.066 -0.022 0.121 -0.066 0.165c -0.957 0.737 -1.727 1.991 -2.299 3.762c -0.495 1.507 -0.737 2.992 -0.737 4.444v 2.574c 0 1.452 0.242 2.937 0.737 4.444c 0.572 1.771 1.342 3.025 2.299 3.762c 0.044 0.044 0.066 0.099 0.066 0.165c 0 0.132 -0.066 0.198 -0.198 0.198c -0.022 0 -0.055 -0.011 -0.11 -0.022c -1.089 -0.836 -1.98 -2.134 -2.684 -3.883c -0.649 -1.617 -0.968 -3.179 -0.968 -4.664v -2.574c 0 -1.485 0.319 -3.047 0.968 -4.664c 0.704 -1.749 1.595 -3.047 2.684 -3.883c 0.055 -0.011 0.088 -0.022 0.11 -0.022Z "/></symbol><symbol id="g46A72DF51926ABBEA5282E072AF79004" overflow="visible"><path d="M 0 0m 5.907 1.507c -0.253 -0.869 -0.616 -1.309 -1.067 -1.309c -0.143 0 -0.22 0.11 -0.22 0.319c 0 0.154 0.066 0.407 0.198 0.748c 0.44 1.199 0.66 1.991 0.66 2.398c 0 0.77 -0.517 1.199 -1.287 1.199c -0.649 0 -1.21 -0.286 -1.661 -0.869c -0.088 0.484 -0.473 0.869 -1.034 0.869c -0.616 0 -0.858 -0.572 -1.012 -1.067c -0.11 -0.352 -0.165 -0.561 -0.165 -0.638c 0 -0.099 0.055 -0.154 0.176 -0.154c 0.055 0 0.088 0.011 0.121 0.033c 0.055 0.099 0.088 0.176 0.099 0.253c 0.198 0.836 0.451 1.254 0.748 1.254c 0.198 0 0.297 -0.154 0.297 -0.462c 0 -0.143 -0.055 -0.44 -0.176 -0.891l -0.627 -2.497c -0.033 -0.143 -0.099 -0.429 -0.099 -0.484c 0 -0.22 0.121 -0.33 0.363 -0.33c 0.209 0 0.363 0.11 0.44 0.33c 0.022 0.055 0.088 0.33 0.209 0.803l 0.231 0.979l 0.33 1.254c 0.121 0.253 0.308 0.506 0.539 0.77c 0.319 0.352 0.715 0.528 1.188 0.528c 0.363 0 0.539 -0.242 0.539 -0.715c 0 -0.418 -0.231 -1.254 -0.704 -2.508c -0.077 -0.198 -0.11 -0.363 -0.11 -0.506c 0 -0.539 0.407 -0.935 0.935 -0.935c 0.484 0 0.869 0.275 1.144 0.825c 0.209 0.44 0.319 0.737 0.319 0.88c 0 0.099 -0.055 0.154 -0.176 0.154c -0.033 0 -0.198 -0.099 -0.198 -0.231Z "/></symbol><symbol id="g909F38261CC6AC8EC8B4F87EB7C59E71" overflow="visible"><path d="M 0 0m 4.499 3.883c 0 -0.286 0.154 -0.429 0.451 -0.429c 0.385 0 0.638 0.341 0.638 0.715c 0 0.429 -0.352 0.726 -0.781 0.726c -0.495 0 -1.023 -0.33 -1.606 -0.979c -0.451 -0.495 -0.814 -0.814 -1.111 -0.957l 1.111 4.51c -0.022 0.099 -0.044 0.165 -0.187 0.165c -0.352 0 -1.188 -0.099 -1.32 -0.11c -0.165 -0.022 -0.242 -0.099 -0.242 -0.264c 0 -0.11 0.099 -0.165 0.297 -0.165c 0.209 0 0.495 0.011 0.495 -0.143l -1.595 -6.479c -0.033 -0.121 -0.044 -0.198 -0.044 -0.242c 0 -0.231 0.121 -0.352 0.352 -0.352c 0.187 0 0.33 0.088 0.407 0.253c 0.055 0.099 0.253 0.88 0.605 2.354c 0.572 -0.055 1.177 -0.33 1.177 -0.88c 0 -0.165 -0.077 -0.495 -0.077 -0.605c 0 -0.627 0.407 -1.122 1.034 -1.122c 0.638 0 1.067 0.572 1.287 1.716c 0 0.099 -0.055 0.154 -0.165 0.154c -0.099 0 -0.165 -0.077 -0.198 -0.231c -0.242 -0.869 -0.539 -1.309 -0.902 -1.309c -0.198 0 -0.297 0.154 -0.297 0.462c 0 0.176 0.132 0.77 0.132 0.946c 0 0.627 -0.506 1.012 -1.529 1.166c 0.253 0.176 0.539 0.429 0.847 0.759c 0.308 0.33 0.528 0.539 0.671 0.66c 0.297 0.242 0.583 0.363 0.836 0.363c 0.11 0 0.198 -0.022 0.264 -0.066c -0.297 -0.055 -0.55 -0.33 -0.55 -0.616Z "/></symbol><symbol id="gD84F32024E522F58238D3DCD4C61FFC1" overflow="visible"><path d="M 0 0m 0.946 -7.084c 1.089 0.836 1.98 2.134 2.684 3.883c 0.649 1.617 0.968 3.179 0.968 4.664v 2.574c 0 1.485 -0.319 3.047 -0.968 4.664c -0.704 1.749 -1.595 3.047 -2.684 3.883c -0.055 0.011 -0.088 0.022 -0.11 0.022c -0.132 0 -0.198 -0.066 -0.198 -0.198c 0 -0.066 0.022 -0.121 0.066 -0.165c 0.957 -0.737 1.727 -1.991 2.299 -3.762c 0.495 -1.507 0.737 -2.992 0.737 -4.444v -2.574c 0 -1.452 -0.242 -2.937 -0.737 -4.444c -0.572 -1.771 -1.342 -3.025 -2.299 -3.762c -0.044 -0.044 -0.066 -0.099 -0.066 -0.165c 0 -0.132 0.066 -0.198 0.198 -0.198c 0.022 0 0.055 0.011 0.11 0.022Z "/></symbol></defs></svg>